<svg width="38" height="38" viewBox="0 0 38 38" fill="none" xmlns="http://www.w3.org/2000/svg">
<path d="M36.9904 5.25797C38.1686 2.27351 35.2157 -0.670184 32.2312 0.498773L25.3953 3.19793C21.8213 1.57607 17.8145 1.16894 13.9872 2.03878C10.16 2.90861 6.72275 5.00757 4.20077 8.01491C1.6788 11.0222 0.210776 14.7726 0.0210225 18.6928C-0.168731 22.6131 0.930222 26.4877 3.14996 29.7245C4.1297 28.316 4.85976 26.7493 5.30817 25.0932C5.42801 24.6363 5.51835 24.1722 5.57865 23.7038C5.76579 22.3641 6.32292 21.1032 7.18741 20.0628C8.0519 19.0224 9.18947 18.2437 10.4722 17.8144C11.755 17.3851 13.1321 17.3221 14.4487 17.6325C15.7653 17.943 16.9691 18.6145 17.925 19.5717C18.8808 20.5288 19.5508 21.7336 19.8594 23.0506C20.1681 24.3676 20.1032 25.7446 19.6721 27.0268C19.2411 28.309 18.4609 29.4455 17.4194 30.3086C16.3778 31.1717 15.1161 31.7271 13.7762 31.9124C13.312 31.9719 12.8522 32.0616 12.3997 32.181C10.7432 32.6293 9.17641 33.3601 7.76836 34.3411C11.0056 36.5614 14.8809 37.6606 18.8019 37.4707C22.7228 37.2807 26.4737 35.812 29.4811 33.2891C32.4886 30.7662 34.5872 27.3279 35.4562 23.4998C36.3251 19.6716 35.9166 15.6642 34.2931 12.0902V12.0902L36.9904 5.25797ZM27.8796 23.5611C27.7384 23.917 27.4962 24.2238 27.1828 24.4438C26.8695 24.6638 26.4987 24.7874 26.116 24.7994C25.7333 24.8114 25.3555 24.7113 25.029 24.5114C24.7025 24.3114 24.4415 24.0204 24.2783 23.6741L22.6295 20.1654C21.5338 17.837 19.66 15.9638 17.3312 14.869L13.8114 13.2128C13.465 13.0497 13.1739 12.7888 12.974 12.4623C12.7741 12.1358 12.6741 11.758 12.6863 11.3753C12.6985 10.9927 12.8224 10.622 13.0427 10.3089C13.263 9.99577 13.5702 9.75399 13.9262 9.6133L32.7963 2.14754C33.152 2.00702 33.5411 1.97355 33.9156 2.05127C34.2901 2.12899 34.6338 2.31449 34.9042 2.58496C35.1747 2.85543 35.3602 3.19907 35.4379 3.57359C35.5156 3.94811 35.4822 4.33719 35.3417 4.69294L27.8796 23.5611Z" fill="black"/>
<path d="M9.19287 27.0383C9.46674 27.5814 9.90765 28.0223 10.4508 28.2962C10.5396 27.5298 10.8333 26.8015 11.3011 26.188C10.6875 26.6557 9.95925 26.9495 9.19287 27.0383V27.0383Z" fill="#FFCB00"/>
<path d="M10.6786 23.7612C10.6158 23.6982 10.5411 23.6482 10.459 23.6141C10.3768 23.5799 10.2887 23.5624 10.1997 23.5624C10.1107 23.5624 10.0226 23.5799 9.94045 23.6141C9.85828 23.6482 9.78364 23.6982 9.72082 23.7612C9.24325 24.2359 8.95202 24.8664 8.90015 25.5378C9.57241 25.4871 10.2039 25.1958 10.6786 24.7171C10.8048 24.5901 10.8757 24.4182 10.8757 24.2391C10.8757 24.06 10.8048 23.8882 10.6786 23.7612V23.7612Z" fill="#FFCB00"/>
<path d="M13.7261 26.8105C13.599 26.6843 13.4272 26.6134 13.2481 26.6134C13.069 26.6134 12.8972 26.6843 12.7701 26.8105C12.2915 27.2853 12.0001 27.9167 11.9495 28.589C12.6209 28.5371 13.2513 28.2459 13.7261 27.7683C13.7891 27.7055 13.8391 27.6308 13.8732 27.5487C13.9073 27.4665 13.9249 27.3784 13.9249 27.2894C13.9249 27.2004 13.9073 27.1123 13.8732 27.0301C13.8391 26.948 13.7891 26.8733 13.7261 26.8105Z" fill="#FFCB00"/>
<path d="M13.7762 31.9124C15.1163 31.7273 16.3783 31.1721 17.4202 30.3091C18.4622 29.4462 19.2428 28.3098 19.6743 27.0276C20.1058 25.7453 20.1712 24.3682 19.863 23.0509C19.5548 21.7336 18.8853 20.5283 17.9298 19.5706C16.9742 18.6129 15.7705 17.9407 14.4539 17.6295C13.1373 17.3184 11.76 17.3806 10.4768 17.8093C9.19359 18.2379 8.0554 19.0159 7.19012 20.0559C6.32484 21.0959 5.76677 22.3566 5.57865 23.6963C5.51836 24.1648 5.42802 24.6289 5.30818 25.0857C4.85977 26.7419 4.12971 28.3085 3.14996 29.7171C3.35189 30.0117 3.56493 30.3025 3.78909 30.586L7.51642 26.8586C7.47936 26.7197 7.44972 26.577 7.42564 26.4325C7.42651 26.4258 7.42651 26.4189 7.42564 26.4122C7.42564 26.3992 7.42564 26.3862 7.42564 26.3733C7.42656 26.3653 7.42656 26.3572 7.42564 26.3492C7.42564 26.3492 7.42564 26.3492 7.42564 26.3344C7.33397 25.671 7.39789 24.9954 7.61235 24.3611C7.82681 23.7267 8.18592 23.1509 8.66129 22.6793L8.71872 22.6274C9.11405 22.2627 9.62951 22.0559 10.1673 22.0461C10.705 22.0363 11.2277 22.2243 11.636 22.5743C12.0444 22.9244 12.31 23.4122 12.3825 23.9451C12.4549 24.4781 12.3292 25.0191 12.0292 25.4655C12.4765 25.1638 13.0192 25.0373 13.5538 25.1103C14.0884 25.1832 14.5773 25.4505 14.9274 25.861C15.2775 26.2716 15.4641 26.7966 15.4516 27.336C15.4392 27.8754 15.2285 28.3913 14.8599 28.7853C14.8436 28.8053 14.8263 28.8244 14.808 28.8427C14.3364 29.3181 13.7606 29.6772 13.1262 29.8916C12.4919 30.1061 11.8163 30.17 11.153 30.0784H11.1029H11.064H11.0437C10.9001 30.0556 10.7579 30.0253 10.6176 29.9876L6.89581 33.7001C7.18111 33.9242 7.4701 34.1373 7.76651 34.3411C9.17457 33.36 10.7413 32.6293 12.3979 32.181C12.851 32.0615 13.3114 31.9718 13.7762 31.9124Z" fill="#FFCB00"/>
<path d="M8.64644 28.8426C8.48663 28.6824 8.33924 28.5102 8.20553 28.3276L4.77832 31.7548C4.93208 31.9179 5.0877 32.0827 5.24701 32.2421C5.40633 32.4014 5.57121 32.557 5.73609 32.7108L9.16145 29.2836C8.97881 29.1499 8.80664 29.0025 8.64644 28.8426V28.8426Z" fill="#FFCB00"/>
<path d="M11.0491 30.0598H11.0695H11.1084H11.1473C11.8101 30.1547 12.4858 30.0942 13.1212 29.8829C13.7565 29.6717 14.334 29.3156 14.8079 28.8427C14.8262 28.8244 14.8435 28.8053 14.8598 28.7852C15.2285 28.3913 15.4391 27.8754 15.4515 27.336C15.464 26.7966 15.2774 26.2715 14.9273 25.861C14.5772 25.4504 14.0883 25.1832 13.5537 25.1102C13.0191 25.0373 12.4764 25.1637 12.0291 25.4655C12.3309 25.0182 12.4573 24.4755 12.3844 23.9409C12.3114 23.4064 12.0442 22.9174 11.6336 22.5673C11.2231 22.2172 10.698 22.0306 10.1586 22.0431C9.61923 22.0555 9.10332 22.2662 8.70937 22.6348L8.65194 22.6867C8.17657 23.1583 7.81745 23.7341 7.60299 24.3685C7.38854 25.0028 7.32461 25.6784 7.41629 26.3417C7.41629 26.3417 7.41629 26.3529 7.41629 26.3566C7.41721 26.3646 7.41721 26.3726 7.41629 26.3806C7.41629 26.3936 7.41629 26.4066 7.41629 26.4195C7.41716 26.4263 7.41716 26.4332 7.41629 26.4399C7.44037 26.5844 7.47001 26.7271 7.50706 26.866L3.789 30.5933C4.10023 30.9922 4.42998 31.3794 4.77826 31.7549L8.20547 28.3277C8.47281 28.6938 8.79527 29.0162 9.16139 29.2836L5.73047 32.7108C6.10098 33.0591 6.49187 33.3907 6.89016 33.7001L10.6175 29.9727C10.7597 30.0094 10.9038 30.0384 11.0491 30.0598V30.0598ZM12.7701 26.8104C12.833 26.7477 12.9077 26.6979 12.9898 26.664C13.0719 26.6301 13.1599 26.6126 13.2488 26.6127C13.3376 26.6128 13.4256 26.6304 13.5076 26.6645C13.5897 26.6986 13.6642 26.7485 13.727 26.8114C13.7898 26.8742 13.8395 26.9489 13.8734 27.031C13.9074 27.1131 13.9248 27.2011 13.9247 27.29C13.9246 27.3788 13.907 27.4668 13.8729 27.5488C13.8389 27.6309 13.789 27.7054 13.7261 27.7682C13.2513 28.2458 12.6209 28.537 11.9495 28.5889C12.0001 27.9166 12.2915 27.2852 12.7701 26.8104V26.8104ZM8.90018 25.5396C8.95162 24.8675 9.24288 24.2364 9.72086 23.7611C9.84762 23.6341 10.0196 23.5627 10.1991 23.5625C10.3785 23.5623 10.5507 23.6335 10.6777 23.7602C10.8047 23.887 10.8762 24.059 10.8763 24.2384C10.8765 24.4179 10.8054 24.59 10.6786 24.7171C10.2042 25.1964 9.57269 25.4885 8.90018 25.5396ZM9.72086 27.7626C9.50734 27.5488 9.32913 27.3024 9.19288 27.0327C9.95926 26.9439 10.6875 26.6502 11.3011 26.1824C10.8333 26.796 10.5396 27.5242 10.4508 28.2906C10.1814 28.1561 9.93509 27.9797 9.72086 27.7682V27.7626Z" fill="black"/>
<path d="M32.7962 2.14757L13.9281 9.61148C13.572 9.75216 13.2649 9.99395 13.0446 10.307C12.8242 10.6201 12.7003 10.9908 12.6881 11.3735C12.6759 11.7561 12.7759 12.134 12.9758 12.4605C13.1758 12.787 13.4668 13.0479 13.8132 13.211L17.333 14.8672C19.6622 15.9624 21.536 17.8363 22.6313 20.1654L24.2801 23.6742C24.4434 24.0205 24.7043 24.3115 25.0308 24.5114C25.3573 24.7113 25.7352 24.8114 26.1178 24.7994C26.5005 24.7874 26.8713 24.6638 27.1847 24.4438C27.498 24.2238 27.7402 23.917 27.8814 23.5612L35.3416 4.69297C35.4822 4.33721 35.5156 3.94814 35.4379 3.57362C35.3602 3.19909 35.1747 2.85546 34.9042 2.58499C34.6338 2.31452 34.2901 2.12901 33.9156 2.0513C33.5411 1.97358 33.152 2.00704 32.7962 2.14757V2.14757ZM29.1727 12.796C28.7297 13.2391 28.1652 13.5409 27.5507 13.6632C26.9362 13.7855 26.2992 13.7228 25.7203 13.4831C25.1414 13.2433 24.6466 12.8373 24.2985 12.3163C23.9503 11.7954 23.7645 11.1829 23.7645 10.5563C23.7645 9.9297 23.9503 9.3172 24.2985 8.79623C24.6466 8.27526 25.1414 7.86923 25.7203 7.62948C26.2992 7.38974 26.9362 7.32705 27.5507 7.44935C28.1652 7.57165 28.7297 7.87343 29.1727 8.31655C29.7661 8.91085 30.0995 9.7164 30.0995 10.5563C30.0995 11.3962 29.7661 12.2017 29.1727 12.796V12.796Z" fill="#68D072"/>
<path d="M29.1727 8.31656C28.7297 7.87344 28.1652 7.57165 27.5507 7.44936C26.9362 7.32706 26.2992 7.38975 25.7203 7.62949C25.1414 7.86924 24.6466 8.27527 24.2985 8.79623C23.9503 9.3172 23.7645 9.92971 23.7645 10.5563C23.7645 11.1829 23.9503 11.7954 24.2985 12.3163C24.6466 12.8373 25.1414 13.2433 25.7203 13.4831C26.2992 13.7228 26.9362 13.7855 27.5507 13.6632C28.1652 13.5409 28.7297 13.2391 29.1727 12.796C29.7661 12.2017 30.0995 11.3962 30.0995 10.5563C30.0995 9.71641 29.7661 8.91086 29.1727 8.31656V8.31656ZM27.937 11.5604C27.7384 11.7593 27.4852 11.8948 27.2095 11.9498C26.9338 12.0047 26.6481 11.9767 26.3883 11.8692C26.1286 11.7617 25.9065 11.5796 25.7503 11.3459C25.5941 11.1122 25.5107 10.8374 25.5107 10.5563C25.5107 10.2752 25.5941 10.0004 25.7503 9.76668C25.9065 9.53298 26.1286 9.35086 26.3883 9.24337C26.6481 9.13587 26.9338 9.10784 27.2095 9.16282C27.4852 9.21779 27.7384 9.3533 27.937 9.5522C28.2031 9.81862 28.3526 10.1798 28.3526 10.5563C28.3526 10.9328 28.2031 11.2939 27.937 11.5604Z" fill="black"/>
<path d="M26.933 11.9753C27.7167 11.9753 28.3521 11.34 28.3521 10.5563C28.3521 9.77254 27.7167 9.13721 26.933 9.13721C26.1493 9.13721 25.514 9.77254 25.514 10.5563C25.514 11.34 26.1493 11.9753 26.933 11.9753Z" fill="white"/>
</svg>
